WWE Smackdown - 24_6_11 in flv format(6 parts). this is complete show of 84 mintues. please seed and comment

details of 1 of 6 parts of files are:


Video
Format                           : AVC
Format/Info                      : Advanced Video Codec
Format profile                   : Main@L3.0
Format settings, CABAC           : Yes
Format settings, ReFrames        : 3 frames
Format settings, GOP             : M=1, N=47
Codec ID                         : 7
Duration                         : 15mn 8s
Bit rate                         : 767 Kbps
Width                            : 626 pixels
Height                           : 360 pixels
Display aspect ratio             : 16:9
Frame rate mode                  : Constant
Frame rate                       : 25.000 fps
Color space                      : YUV
Chroma subsampling               : 4:2:0
Bit depth                        : 8 bits
Scan type                        : Progressive
Bits/(Pixel*Frame)               : 0.136
Stream size                      : 83.1 MiB (85%)

Audio
Format                           : AAC
Format/Info                      : Advanced Audio Codec
Format profile                   : LC
Codec ID                         : 10
Duration                         : 15mn 8s
Bit rate                         : 129 Kbps
Channel(s)                       : 2 channels
Channel positions                : Front: L R
Sampling rate                    : 44.1 KHz
Compression mode                 : Lossy
Stream size                      : 13.9 MiB (14%)
